<svg xmlns="http://www.w3.org/2000/svg" id="Lager_1" x="0" y="0" version="1.1" viewBox="0 0 570.55 102.17" xml:space="preserve"><style>.st0{fill:#4d5334}</style><path d="M377.71 45.36v19.05c0 5.82.69 7.56 4.74 7.56h2.81v2h-23.68v-2h2.08c4.04 0 4.73-1.74 4.73-7.56V39.84c0-7.7-4.85-9.55-4.85-9.55h14.17v15.07zM350.55 29.2c-5.06 0-9.16 3.03-11.09 9.12v-8.2h-14.17s4.85 2.01 4.85 9.71v24.58c0 5.82-.69 7.56-4.73 7.56h-2.08v2H347v-2h-2.81c-4.05 0-4.74-1.74-4.74-7.56V45.93c.96-7.07 5.05-13.25 9.71-13.25 1.47 0 3.59.34 3.59 2.27 0 .37 0 .92-.18 1.47 0 0-3.46.05-3.57 3.35-.12 3.67 1.82 4.94 4.94 4.94 3.03 0 5.88-1.84 5.88-7.17.01-4.85-3.58-8.34-9.27-8.34zm-230.17 0c-5.97 0-9.16 2.69-11.09 8.78v-7.86H95.13s4.85 2.01 4.85 9.71v24.58c0 5.82-.69 7.56-4.73 7.56h-2.08v2h23.68v-2h-2.81c-4.05 0-4.74-1.74-4.74-7.56V46.77c0-6.72 4.33-14.08 9.71-14.08 1.47 0 3.74.34 3.74 2.27 0 .37-.15.92-.34 1.47 0 0-3.46.05-3.57 3.35-.12 3.67 1.82 4.94 4.94 4.94 3.03 0 5.88-1.84 5.88-7.17 0-4.86-3.58-8.35-9.28-8.35zm304.84 36.37c-2.57 4.72-8.64 8.78-17.09 8.78-14.15 0-20.49-8.91-20.49-22.33 0-16.08 6.26-23.89 21.32-23.25 11.34.48 17.3 6.83 16.84 20.13-.02.7-.9.82-.9.82h-27.62v1.29c0 13.24 3.03 20.22 13.05 20.22 4.43 0 9.03-2.36 11.23-5.08l3.66-.58zm-8.63-18.33c.31-10.45-2.48-16.23-8.46-16.27-8.56-.05-10.11 5.79-10.75 16.27h19.21zm114.67 11.73h2.39c.55 8.27 7.53 12.23 14.89 12.23 7.72 0 10.94-3.03 10.94-8.27 0-5.88-5.7-6.99-11.95-8.08-7.35-1.29-15.44-2.67-15.44-12.32 0-7.63 6.08-14.04 15.27-14.04 3.86 0 6.05.99 8.9 2.28 4.09 2.38 5.8.82 5.88.92.04.05 0 10.38 0 10.38h-2.3c-1.66-7.26-6.16-10.84-12.59-10.84-5.79 0-9.92 2.58-9.92 7.08 0 5.61 5.6 6.53 11.76 7.63 7.35 1.38 15.44 3.12 15.44 13.97 0 8.27-5.79 14.5-16.08 14.5-5.24 0-9.03-1.1-12.16-2.85-2.67-1.49-4.36-.1-4.75 1.01-.14.4-.28.1-.28.1v-13.7zM14.86 71.5c-1.99-2.36-3.06-3.69-3.06-5.97 0-3.69 2.39-7.01 6.28-8.72l10.72 1.43h-2.89c-5.36 0-8.42 1.7-8.42 4.64 0 2.56 2.47 2.74 7.59 2.84l4.54.1c5.69.18 8.93 1.06 11.91 2.5 4.54 2.19 8.08 5.69 7.93 13.22-.2 10.43-10.79 18.62-22.17 18.62-11.14 0-21.04-7.63-21.04-16.64.01-4.74 3.82-8.78 8.61-12.02m12.04 2.76c-6.77 0-17.17 1.42-17.43 9.17-.25 7.31 7.59 11.33 17.74 11.33 9.4 0 18.71-5.15 18.71-11.32.01-8.97-15.38-9.18-19.02-9.18m5.74-45.43v-5.38c0-4.17 2.24-6.48 6.35-6.48 3.07 0 5.57 2.12 5.57 4.75 0 2.3-1.73 4.1-3.98 4.1-1.98 0-3.39-1.29-3.39-3.14 0-.19.06-.45.06-.7.06-.26.06-.52.06-.7 0-.58-.38-.97-.96-.97-1.22 0-1.98 1.61-1.98 4.17v4.35" class="st0"/><path d="M18.8 57.1c-5.88-2.3-8.09-7.26-8.09-13.6 0-8 5.33-15.62 17.55-15.62 3.68 0 6.9.92 9.65 2.85 0 0 1.24.82 2.11 1.65 2.49 2.67 4.05 5.7 4.05 10.48 0 9.46-6.25 15.62-16.27 15.62-2.3 0-4.59-.28-6.43-.65m6.35-1.74c4.5 0 7.63-2.85 7.63-12.87 0-9.56-2.58-13.14-7.72-13.14-4.78 0-8 3.03-8 13.24 0 9.73 2.94 12.77 8.09 12.77zm48-5.01v-6.71c0-8.36-1.93-13.79-9.56-13.79-3.58 0-6.69 1.01-6.69 4.14 0 .37.09.83.18 1.29 0 0 3.31 1.04 3.31 3.58 0 3.31-2.21 5.24-5.24 5.24s-4.78-2.3-4.78-5.79c0-6.8 6.69-10.66 15.24-10.66 11.03 0 16.36 4.13 16.36 17.37V64.4c0 6.94 5.18 9.48 5.18 9.48s-2.65.08-5.28.08c-4.87 0-7.81-2.3-8.45-6.62-2.3 4.23-7.08 6.62-12.77 6.62-6.9 0-12.78-2.76-12.78-10.66 0-9.28 8.09-12.23 19.76-12.23h5.52zm0 10.38v-8.09h-3.4c-9.46 0-12.41 4.41-12.41 9.83 0 4.5 2.02 7.26 6.52 7.26 4.79.01 9.29-3.39 9.29-9zm83.87-33.04c-7.26 0-11.95 3.31-14.89 8V8.28h-13.4l.02.01h-.63s5.18 2.55 5.18 9.48h.01V64.4h-.01c0 6.94-5.18 9.48-5.18 9.48s2.65.08 5.28.08c4.28 0 6.97-1.88 8.02-5.25 3.13 3.44 7.3 5.29 13.58 5.29 11.76 0 19.39-8 19.39-23.25 0-14.89-6.53-22.33-17.37-22.33zm-3.25 42c-7.44 0-11.91-4.14-11.91-11.4V44.87c0-7.81 6.41-12.44 12.57-12.44 8.36 0 10.31 6.93 10.31 18.69 0 14.24-3.34 19.3-10.97 19.3zm317.08-5.41V44.32c0-11.12-5.15-15.34-13.6-15.34-9.28 0-14.06 5.05-16.17 9.56v-2.55l.01-2.57V29.9h-13.73s4.85 2.13 4.85 9.83V64.3c0 5.82-.69 7.56-4.73 7.56h-2.08v2h23.24l-.06-2h-2.81c-3.46 0-4.46-1.29-4.68-5.3v-18.5c0-8.55 6.17-15.37 13.33-15.37 5.7 0 7.9 3.41 7.9 10.21l-.14 23.11-.01 1.14c.16 3.75 3.58 6.62 8.45 6.62 2.63 0 5.37.02 5.37.02s-4.78-2.41-5.14-8.78zm49.07-.18V8.42h-8.48c-2.63 0-5.37-.02-5.37-.02s4.91 2.64 5.02 9.4v17.89c-2.48-3.86-6.43-6.43-12.87-6.43-11.85 0-19.39 8-19.39 23.25 0 14.89 6.99 22.33 17.83 22.33 7.26 0 11.49-3.31 14.43-8l.04.01-.01.51c.16 3.75 3.58 6.62 8.45 6.62 2.63 0 5.37.02 5.37.02s-4.89-2.44-5.02-9.17zm-21.23 6.51c-8.09 0-10.2-7.44-10.2-19.21 0-13.42 3.4-20.03 11.31-20.03 7.17 0 11.58 6.8 11.58 11.85v14.43c-.01 7.82-6.26 12.96-12.69 12.96zM204.22 28.21c12.87 0 20.41 7.08 20.41 22.51 0 14.24-7.54 23.07-20.77 23.07-13.05 0-20.68-8.27-20.68-22.61-.01-14.79 8.45-22.97 21.04-22.97zm-.19 2.21c-9.37 0-11.21 9.1-11.21 20.13 0 11.21 1.93 21.05 11.21 21.05 8.91 0 10.94-8.64 10.94-20.86 0-10.95-1.84-20.32-10.94-20.32zm167.66-19.16c3.22 0 5.61 1.57 5.61 5.42 0 3.31-1.93 5.61-5.51 5.61-4.23 0-5.61-2.85-5.61-5.61 0-2.94 1.93-5.42 5.51-5.42zm-55.13-3.01c-12.32 0-17.37 8.55-17.37 21.96v5.33h-2.8v2.39h2.8v26.76h-.02c0 5.82-.97 7.28-5.01 7.28h-2.08v2h23.68v-2h-2.81c-3.53 0-4.69-1.33-4.93-5.53V37.93h5.15v-2.39h-5.15V23.23c0-6.62.92-12.78 7.9-12.78 3.58 0 5.15 1.29 5.15 3.58 0 .55.22 1.31-1.29 2.01-1.13.52-1.92 1.5-1.92 2.95-.02 3.22 2.11 4.96 5.33 4.96 3.31 0 5.24-2.39 5.24-6.16-.01-6.24-5.43-9.54-11.87-9.54zM281.3 58.54c3.28-7.75 1.99-18.57-2.11-23.44-3.03-3.6-8.13-4.57-11.21-1.49-1.67 1.67-2.51 4.57-.34 7.54.8 1.1 2.72 2.24 4.96 2.12 6.45-.35 9.42 6.19 6.95 13.21-2.58-2.74-5.66-5.06-8.87-7.38-6.19-4.47-17.33-13.56-17.33-13.56-4.47-3.86-7.2-9.56-7.2-15.65 0-8.23 5.39-12.5 10.75-12.66 6.52.03 8.31 6.15 4.84 9.44-2.24 2.04-2.56 3.65-2.39 5.37.38 3.93 3.72 6.45 8.03 6.03 4.67-.46 7.52-4.2 7.03-9.23-.72-7.37-5.86-13.75-18-13.46-8.5.2-18.8 7.77-18.8 19.33 0 6.09 2.84 11.88 6.5 15.74-7.52 4.47-12.69 9.85-12.69 18.68 0 14.12 12.21 22.02 25.77 20.87 9.93-.84 14.35-4.24 19.81-11.52 6.55 6.79 3.05 18.02-.73 20.76-1.52 1.1-2.58 1.54-4.88 1.2-2.59-.53-1.85-2.54-2.16-3.76-.33-1.3-1.8-2.53-2.99-2.87-2.71-.77-5.26.8-6.11 3.77-.91 3.23.83 6.1 4.31 7.09 2.29.65 7.49.06 13.54-3.99 4.32-2.89 8.17-8.21 8.47-14.22.4-8.03-1.73-13.54-5.15-17.92zm-23.14 16.79c-10.15-.08-16.81-6.3-17.3-16.88-.34-7.2 2.25-12.31 5.7-15.66 4.67 4.07 10.82 8.02 16.56 12.53 5.88 4.62 8.62 7.47 12.18 11.34-4.19 5.06-8.17 8.75-17.14 8.67z" class="st0"/></svg>