<svg xmlns="http://www.w3.org/2000/svg" viewBox="0 0 548.1 108.3"><path d="M63.4.1c-6.8 0-13.8 6.4-14.9 10-2.2-6.3-7.7-10-15.6-10C27.9.1 19 6.6 17.2 13V1.9H0v61.4h17.2V29.8c0-8.9 3.6-13.5 8.9-13.5s8.3 4.8 8.3 13.5v33.5h17.2V36.7c0-1.9.2-3.4.2-4.6 0-9.3 2.7-15.8 8.5-15.8 7.2 0 8.4 8.8 8.4 14.9v32H85v-38C84.9 8.5 78.2.1 63.4.1zm259.1 108.2l17.1-18.1V.1h-17.1zM156.6.1c-18 0-32.6 14.6-32.6 32.6s14.6 32.6 32.6 32.6 32.6-14.6 32.6-32.6S174.6.1 156.6.1zm0 49c-9.1 0-16.4-7.3-16.4-16.4s7.3-16.4 16.4-16.4S173 23.6 173 32.7s-7.4 16.4-16.4 16.4zM532 26.9c-1.8-.7-7.5-1.9-9.1-2.6-1.6-1-3.4-2.7-3.7-4.5-.6-3.6 3.4-6.5 7.3-6.4 3.4 0 7.1 2.2 8.5 3.4 1.1.9 3 3 3.2 3.2.1-.1 9.8-9.6 9.8-9.6s-.9-1.1-1.5-1.6c-4.4-5-11.1-8.8-19.1-8.8-12.8 0-23.2 8.8-23.2 19.8 0 8 5.7 14.9 13.7 18 .3.1.8.3 1.2.4h.1c1.8.8 7.1 1.8 8.6 2.5 2.1.8 3.5 2.7 3.8 4.7.6 3.9-3.9 6.7-7.4 6.4-2.7-.2-4.9-1.1-7.1-2.9-2.7-2.2-4.5-4-4.5-4.1l-10 9.8 1.6 1.7c4.4 4.9 11.2 8.7 19.1 8.7 12.8 0 24.1-8 24.1-19.8.2-8.2-7.3-15.4-15.4-18.3zM251.4 13V1.9h-17.2v61.4h17.2V34.2c0-8.8 12.6-19.3 22.6-14.7V2.1c-10.9-6.4-21.7 6.2-22.6 10.9zm182.4 0c-3.6-8.3-13-13-20.8-13-14.6 0-28 14.6-28 32.6s13.3 32.6 28 32.6c7.8 0 17.2-5.4 20.8-13.3v11.3h16.3V1.9h-16.3V13zm-19 36.1c-9.9 0-15-8.5-15-16.4 0-8 5.5-16.4 15-16.4 7.7 0 16.3 7.8 16.3 16.4 0 8.6-8.5 16.4-16.3 16.4z"/></svg>