<svg xmlns="http://www.w3.org/2000/svg" data-name="Layer 1" viewBox="0 0 403.51 94.31"><path d="M202.38 69.22zM47.64 77.74V53.8h15.78v23.52c0 2.84 1.21 3.53 3 3.53s3-.69 3-3.53V53.8h15.89v23.94c0 10.42-6.1 16.57-18.84 16.57s-18.83-6.15-18.83-16.57zm84.64-7.42c0 11.31-7 16.37-20.94 16.37h-4.79v6.57H90.77V53.8h22.57c10.57 0 18.94 5.05 18.94 16.52zm-16.31 0c0-2.94-1.47-3.37-3-3.37h-6.42v6.58h5.21c2.58 0 4.24-.74 4.24-3.21zm62.03 0c0 11.31-7 16.37-20.93 16.37h-4.79v6.57h-15.84V53.8H159c10.59 0 19 5.05 19 16.52zm-16.31 0c0-2.94-1.47-3.37-3-3.37h-6.42v6.58h5.21c2.52 0 4.16-.74 4.16-3.21zm19.31 2.9c.05-13.37 8.36-20.47 20-20.47 14.83 0 20.93 6.52 20.93 21.1 0 13.1-8.57 20.46-20.09 20.46-14.66 0-20.76-6.52-20.84-21.09zm24.35.63c0-5.68-1.58-7.47-4.26-7.47-1.73 0-3.47 1.26-3.52 6.84s1.63 7.47 4.26 7.47c1.87 0 3.55-1.27 3.55-6.84zm64.16 18.62v.79h-16.95c-.73-1.52-1-3.84-1-7.36s-1.42-4-3.68-4h-5.73v11.36h-15.79V53.8h23.1c10.26 0 18.41 3.84 18.41 12.58 0 5.05-1.89 8.68-8.26 9.31v.68c5.74.74 8.26 4.58 8.26 9a12.66 12.66 0 001.64 7.1zM242.15 67v4.48h5.73c2.26 0 3.68-.53 3.68-2.16 0-2-1.21-2.32-2.47-2.32zm66.95 1h-11.2v25.26h-15.79V68h-10.89V53.8h37.88zm42.67 12.63v12.63h-37.41V53.8h37.31v12.63h-21.52v3.16h20v7.89h-20v3.15zm50.82-26.83v39.46h-25.78l-4.47-25.73h-.84v25.73h-13.42V53.8h25.78l4.42 25.52h.9V53.8zM16.84 78.42c9.89.32 11.26.64 11.26 2.21 0 1-1.05 1.37-5.57 1.37-4.94 0-6.18-.48-6-2.38L1.11 80.74c-1 7.05 5.26 13.57 20.36 13.57C36.05 94.31 43 89.47 43 80.63c0-7.15-3.75-10.84-12.85-11.22 0 0-3.57-.37-7.32-.59s-7.68-.33-7.61-1.76c.06-1 1.8-1.39 5.72-1.44 3.67 0 6.13.54 6.17 2.17l14.68-2.47c-.58-8.83-9.15-12.57-20.36-12.57-12.78 0-20.41 4.84-20.41 14.31 0 8.31 4.94 10.79 10.57 11.1l5.06.25M151 40.65h-13.13V14.92h-.58l-3.68 25.73H113l-3.69-25.73h-.57v25.73H95.62V1.19h25L123 27.24h.69l2.36-26h25zm6.33-15.52V1.19h15.79v23.52c0 2.84 1.21 3.53 3 3.53s3.05-.69 3.05-3.53V1.19H195v23.94c0 10.42-6.11 16.57-18.84 16.57s-18.83-6.15-18.83-16.57zm89.03 15.52V1.19h15.78v39.46zm37.41-18.46h-.53l.47 18.46h-15.78V1.19h15.78l-.47 18.57h.63l7.94-18.57h16.63l-9.21 17.89-11.57 1.68v.58l12.68 1.84L309 40.55l-17.94.1zm-68.66 3.48c9.89.32 11.26.64 11.26 2.21 0 1-1.05 1.37-5.58 1.37-4.93 0-6.18-.48-6-2.38L199.38 28c-1 7.05 5.26 13.57 20.36 13.57 14.57 0 21.57-4.84 21.57-13.68 0-7.15-3.75-10.84-12.85-11.22 0 0-3.58-.37-7.33-.59s-7.67-.33-7.6-1.76c.06-1.05 1.8-1.39 5.72-1.44 3.66 0 6.12.54 6.16 2.17l14.69-2.47C239.52 3.74 230.94 0 219.74 0 207 0 199.33 4.84 199.33 14.31c0 8.31 4.94 10.79 10.57 11.1l5.06.25"/></svg>