<svg xmlns="http://www.w3.org/2000/svg" xmlns:xlink="http://www.w3.org/1999/xlink" width="284" height="44"><defs><path id="a" d="M.06.889h283.404V44H.06z"/></defs><g fill="none" fill-rule="evenodd"><mask id="b" fill="#fff"><use xlink:href="#a"/></mask><path fill="#000" d="M9.092 11.867c0-2.788 1.554-4.495 4.375-4.495 2.763 0 4.488 1.65 5.813 5.519l7.136-2.049C25.033 5.041 20.718.889 13.639.889 5.41.889 1.152 5.326 1.152 12.379c0 11.489 17.726 11.602 17.726 19.337 0 3.073-2.131 4.892-4.894 4.892-2.359 0-5.237-1.764-6.156-6.712L0 31.546c2.13 8.076 7.136 11.546 13.582 11.546 8.346 0 13.237-4.664 13.237-11.717 0-12.854-17.727-13.309-17.727-19.508zM147.924 44l.032-.038a.55.55 0 00-.045.038h.013zM80.308 8.396h12.777V1.457H72.367v41.067h7.941V24.777h10.015v-6.939H80.308V8.396zm47.979-6.939h-26.472v6.939h9.264v34.128h7.943V8.396h9.265V1.457zM61.685 14.653c0-10.124-5.411-13.764-13.12-13.764-7.714 0-13.123 3.64-13.123 13.764v14.676c0 10.123 5.409 13.763 13.123 13.763 7.709 0 13.12-3.64 13.12-13.763V14.653zm-7.943 15.7c0 4.548-2.013 5.799-5.177 5.799-3.167 0-5.181-1.251-5.181-5.799V13.631c0-4.552 2.014-5.803 5.181-5.803 3.164 0 5.177 1.251 5.177 5.803v16.722zm122.45 8.757l1.208 3.414h4.145V21.478H168.02v6.484h5.584v2.503c0 3.527-1.843 5.687-4.834 5.687-3.165 0-5.181-1.251-5.181-5.799V13.631c0-4.552 2.016-5.803 5.181-5.803 2.878 0 4.834 1.706 4.834 6.997h7.941C181.258 5.496 176.885.889 168.77.889c-7.713 0-13.121 3.64-13.121 13.764v14.676c0 10.123 5.408 13.763 13.121 13.763 2.991 0 5.294-1.593 7.422-3.982zm27.863 3.982c7.709 0 13.119-3.64 13.119-13.763V14.653c0-10.124-5.41-13.764-13.119-13.764-7.715 0-13.123 3.64-13.123 13.764v14.676c0 10.123 5.408 13.763 13.123 13.763zm-5.181-29.461c0-4.552 2.013-5.803 5.181-5.803 3.163 0 5.178 1.251 5.178 5.803v16.722c0 4.548-2.015 5.799-5.178 5.799-3.168 0-5.181-1.251-5.181-5.799V13.631zm35.095-12.174l-10.303 41.067h7.656l2.244-8.647h10.991l2.014 8.647h7.596L244.154 1.457h-10.185zm1.036 25.482l3.913-16.608h.114l3.857 16.608h-7.884zm21.984-25.482v6.939h9.266v34.128h7.942V8.396h9.267V1.457h-26.475z" mask="url(#b)"/></g></svg>