<svg xmlns="http://www.w3.org/2000/svg" xmlns:xlink="http://www.w3.org/1999/xlink" width="130" height="32"><defs><path id="a" d="M.025 1.109h129.893V31.54H.025z"/></defs><g fill="none" fill-rule="evenodd"><path fill="#F66" d="M38.752 10.868a1.313 1.313 0 100-2.625 1.313 1.313 0 000 2.625"/><mask id="b" fill="#fff"><use xlink:href="#a"/></mask><path fill="#F66" d="M125.533 19.525c-.819 0-1.51-.494-1.705-1.354 1.195-1.909 1.636-2.63 1.636-2.63 1.408.75 1.872 1.27 1.872 2.183 0 .964-.864 1.801-1.803 1.801zm-20.716-2.447c-.722-.173-1.242-.74-1.485-1.162-.755-1.316-.125-2.273.45-2.273 1.242 0 1.508 1.895 1.035 3.435zm-2.648 2.645c-.448-.087-1.83-.571-1.235-3.426.196-.943.506-1.335.506-1.335.076 2.106 1.248 3.578 2.666 3.964-.37.614-1.093.962-1.937.797zm-9.62.07c-.464.185-.582-.28-.338-.7.244-.422 1.235-.817 1.235-.817s-.353 1.3-.896 1.517zm33.913-5.675s.193-.288.193-.867c0-.667-.557-1.422-1.548-1.422-.64 0-1.494.523-1.494 1.489 0 .765.67 1.323.67 1.323-2.419 3.68-3.548 5.07-4.565 4.83-.907-.214-1.196-1.583-.603-3.64l.648-2.277h2.056l.52-1.957h-2s.33-1.14.518-1.77c.035-.117.106-.342.106-.602 0-1.015-.916-1.269-1.287-1.269-.435 0-1.073.213-1.291.955-.087.299-.523 1.766-.78 2.686h-1.95l-.522 1.957h1.91s-.087.26-.693 2.399c-.005.02-.22.76-.423 1.401 0 0-1.196 2.576-2.379 2.091-.53-.217-.377-1.101-.29-1.477.329-1.439.57-2.525-.061-3.545-.376-.609-.897-.95-1.359-1.2.094-.216.462-1.617.462-1.617l-2.569-.004c-.597 3.166-1.59 4.46-2.38 4.988.154-1.409-.153-2.797-1.038-3.735-.64-.679-1.31-.898-2.048-.923-.58-.02-1.145.066-1.496.26-.832-.239-1.682-.11-2.525.47-2.085 1.433-3.47 2.326-3.47 2.326-.034-.498-.17-3.052-3.333-3.049-1.116.002-1.671.359-2.29.785l.327-1.147h-2.916l-4.603 15.982h2.907s1.97-6.716 3.288-11.305c.62-2.155 1.505-2.5 2.1-2.6 1.18-.2 2.106.878 1.696 2.698 0 0-.43.241-1.52.839-.69.378-1.598.922-1.92 1.868-.319.935-.154 2.326 1.183 2.739 1.399.433 4.505-.516 5.02-5.024 0 0 .373-.21 1.852-.933-.838 3.835 1.05 5.467 2.504 5.86 1.612.437 3.363.09 4.432-.92.934-.884 1.259-1.668 1.259-1.668 2.069-.425 3.28-2.23 4.35-4.55.85.732.034 2.056-.365 3.14-.602 1.637-.365 3.795 1.63 4.12 1.73.284 2.9-.753 3.513-1.808.645 1.303 1.646 1.748 2.663 1.82 1.15.081 2.254-.096 3.814-1.766a3.925 3.925 0 003.462 2.017c2.384 0 4.091-1.943 4.091-3.959 0-2.408-2.04-3.242-3.456-4.009zm-63.034-.987c-.34-.824-.244-1.784.452-2.137.622-.315 1.14-.129 1.414.108.602.516.526 1.329.548 1.737.015.325.14.679.455.754.315.078.566-.104.864-.484.782-.996 1.583-1.797 2.707-1.734.88.049 1.216.68 1.202 1.426-.031 1.676-2.243 3.978-4.43 5.236-1.55-1.656-2.824-3.963-3.212-4.906zm-10.86 14.767c-.306.955-.972 1.538-1.7 1.224-.571-.247-.924-.917-.792-1.923.106-.81.627-1.249 1.735-1.72 1.292-.55 1.68-.704 1.68-.704-.571 1.96-.547 1.946-.923 3.123zm-8.371-11.742c.104-1.872.464-3.289 1.063-5.463.943-3.425 2.381-4.944 3.15-4.826.507.078.596.585.642.917.094.69-.37 2.612-1.428 4.69-1.43 2.809-3.427 4.682-3.427 4.682zm-15.012 2.108c-.627.893-1.484 1.244-2.107 1.283-.495.033-1.02-.087-1.264-.597-.233-.487-.23-1.388.056-2.317.518-1.678 1.265-2.591 2.694-2.949.82-.205 1.705.037 2.142.253 0 0-.872 3.401-1.521 4.327zm56.623-2.69c-.352-2.878-2.933-3.793-3.727-4.411-.786-.61-2.182-1.295-2.37-3.067-.15-1.429 1.063-2.503 2.46-2.503.605 0 1.277.241 1.687.9.384.617.428 1.671-.244 2.407l2.415 1.106s.99-.864.673-2.774c-.258-1.559-1.842-3.258-4.375-3.258-1.514 0-2.433.402-3.523 1.298-1.03.845-1.628 2.352-1.601 3.775.04 2.175 1.298 3.398 2.806 4.595 1.509 1.197 2.523 2.12 2.532 3.583.013 2.022-1.465 3.386-3.297 3.378-1.215-.007-2.37-.684-2.594-2.039-.164-1 .315-1.535.514-1.922.199-.388.472-1.53-.557-2.131-.833-.487-1.783-.06-2.198.29-.493.417-1.437 1.486-.862 3.95-.667.913-1.794 1.338-2.624 1.393-.777.052-1.926-.003-3.041-.898 5.147-3.166 6.057-5.94 5.91-7.591-.087-.982-.781-2.074-1.728-2.418-2.136-.775-4.22.942-5.433 2.494.12-.92-.17-1.869-.702-2.46-.632-.703-1.49-.892-2.533-.669-1.31.28-2.375 1.45-2.375 3.452 0 1.824 1.966 4.643 4.016 6.979-4.088 1.865-8.122 2.83-8.122 2.83l2.788-9.66-2.555.001s-1.104 3.753-1.362 4.67c-.596 2.124-1.527 2.709-2.344 2.62-.747-.081-1.23-.657-.516-3.17.3-1.058.584-2.015.72-2.483.042-.138.117-.382.117-.648 0-.965-.869-1.27-1.311-1.27-.534 0-1.076.31-1.287 1.013-.233.773-.362 1.23-1.133 3.898-1.394 1.905-2.669 2.925-4.18 2.587-.565-.126-1.112-.508-1.321-1.062 0 0 1.674-1.597 2.332-2.273 1.586-1.629 2.688-3.04 3.614-4.814 1.73-3.318 1.053-7.058-2.596-7.269-3.366-.194-4.753 3.052-5.844 7.158-.689 2.588-1.104 5.41-.788 7.316-1.267.87-2.174 1.118-2.652.96-.662-.221-1.092-.823-.755-1.963.671-2.263.784-2.66 1.04-3.536.101-.348.153-.533.153-.697 0-.885-.695-1.313-1.318-1.313a1.3 1.3 0 00-1.258.95c-.156.513-.38 1.277-1.28 4.312 0 0-.484.845-.666 1.1-.796 1.114-1.512 1.435-2.108 1.203-.553-.216-.404-.948-.005-2.364.811-2.88 1.597-5.534 1.597-5.534l-2.622-.002-.24.822c-.872-.42-1.68-.54-3.107-.38-2.562.287-4.55 2.178-5.017 4.846-.502 2.865.486 4.635 2.388 4.959 1.53.26 2.965-.428 4.108-1.747.02.103 0 0 .036.099.277.77.802 1.407 1.59 1.609 1.194.306 2.729-.486 3.839-1.757.048.132.105.259.171.38.382.704 1.03 1.18 1.873 1.372 1.498.34 3.137-.377 4.781-1.62.614 1.01 1.49 1.4 2.469 1.61 2.19.466 3.999-.485 5.72-2.125.27.911.917 1.666 1.705 1.891.718.205 1.787.244 2.943-.755l-.458 1.577c-1.531.425-2.078.56-3.419.948-.672.196-3.25.953-3.167 4.275.055 2.171 1.387 3.69 3.053 3.908 1.925.25 3.926-.834 4.58-3.38.488-1.9 1.04-4.027 1.04-4.027s5.782-1.825 10.006-3.896c1.754 1.516 3.38 1.964 4.62 2.041 1.197.074 2.672-.18 3.91-1.297 1.213 1.056 2.986 1.435 3.966 1.491 2.311.134 4.045-.493 5.542-2.03.967-.991 1.759-2.72 1.5-4.832zm-67.238-.932c-.942 3.674-2.91 5.4-5.066 5.837-1.477.3-2.5.086-3.673-.25 3.158-4.376 3.645-9.931 6.916-13.847 2.247 1.86 2.503 5.612 1.824 8.26zM4.36 22.037c-.917.052-1.335-.335-1.36-.787-.025-.452.328-.931 1.271-.918.747.01 1.555.36 2.368.766-.839.708-1.556.896-2.28.939zM18.27 4.824c.677-.664 1.72-1.224 1.72-1.224l-1.83-2.49a11.44 11.44 0 00-3.01 2.328c-4.382-1.081-8.53-.405-11.638 1.788-3.4 2.4-4.026 5.58-3.167 7.752a4.926 4.926 0 004.279 3.11 4.93 4.93 0 004.9-3.093l-1.678-1.698a2.55 2.55 0 01-2.597 2.218c-1.466 0-2.47-1.22-2.47-2.52 0-1.348.548-2.951 2.684-4.444 3.403-2.38 7-2.01 8.491-1.448-2.156 3.436-3.52 10.6-6.02 14.51-1.761-.624-3.653-1.267-5.8-.403C1.076 19.636.5 20.724.772 21.814c.217.873 1.37 1.812 3.01 1.812a7 7 0 004.688-1.82c1.662.624 3.286 1.163 5.4 1.05 4.48-.24 7.456-3.51 8.286-7.139.638-2.791.536-5.675-1.411-8.495a8.831 8.831 0 00-2.476-2.397z" mask="url(#b)"/></g></svg>