<svg width="100" height="36" xmlns="http://www.w3.org/2000/svg" viewBox="0 0 332.69 120.87"><path d="M279.6 42.51h-8.38v59.45h8.38V42.51zm27.46-25.14h-8.38v84.59h8.38V17.37zm-192.66 0h-8.38v84.59h8.38V17.37zm-27.46 0h-8.38v84.59h8.38V17.37zm194.72 4.37c0-3.42-2.61-5.88-6.04-5.88-3.16 0-5.77 2.73-5.77 5.88 0 3.55 2.61 6.01 5.77 6.01 3.43.14 6.04-2.73 6.04-6.01zM129.64 63.97c0-13.94 8.79-22.82 21.42-22.82 5.9 0 12.91 3.01 14.69 6.97 0 0 .14.14.14 0v-5.33h8.38v59.17h-8.38v-5.33c0-.14-.14 0-.14 0-1.65 3.96-8.65 6.97-14.69 6.97-12.63 0-21.42-8.88-21.42-22.82V63.97zm36.12-1.78c0-7.79-6.73-13.39-14.28-13.39s-13.46 5.74-13.46 13.39v20.09c0 7.65 5.9 13.39 13.46 13.39 7.55 0 14.28-5.6 14.28-13.39V62.19zm52.45 33.08c-9.47 0-16.2-6.97-16.2-15.44 0-7.1 5.14-13.47 13.22-18.9l20.42 24.64c-4.12 5.46-10.43 9.7-17.44 9.7zM209.43 35c0-6.42 4.81-10.66 10.99-10.66 4.81 0 9.75 3.28 9.75 9.43 0 7.74-6.68 12.49-13.17 16.69-5.66-6.83-7.57-11.22-7.57-15.46zm39.7 66.83h10.43l-37.93-45.77c10.11-7.13 16.9-14.32 16.9-22.97 0-10.39-8.79-16.81-18.13-16.81-10.85 0-19.64 7.93-19.64 18.72 0 5.74 3.14 12.68 9.87 20.33-9.7 6.24-17.29 14.18-17.29 24.9 0 13.8 10.3 23.23 24.72 23.23 9.06 0 17.18-4.79 22.67-11.76l8.4 10.13zM54.39 84.61c-1.37 5.88-5.49 11.21-13.32 11.21-8.24 0-13.87-5.88-13.87-13.8v-7.38h36.11V63.01c0-11.62-8.24-21.87-22.25-21.87-12.63 0-22.25 9.57-22.25 21.87V81.6c0 12.3 9.61 21.87 22.25 21.87 12.08 0 19.5-7.52 21.42-16.81l-8.09-2.05zM27.2 62.6c0-7.93 5.63-13.8 13.87-13.8 9.2 0 13.87 7.24 13.87 13.8v4.78H27.2V62.6z" fill="#223545"/></svg>