<svg xmlns="http://www.w3.org/2000/svg" width="100" height="21" fill="none"><path d="M50.451 6.335c-.037 0-.075 0-.114.002-.745.025-1.696.312-2.879 1.187.005.009.007.019.012.027-.365-.639-.95-1.09-1.882-1.09-.856 0-1.588.55-1.588 1.359 0 .346.122.549.306.78.304.434.426.867.426 1.677v9.248c0 .84.703 1.475 1.65 1.475.915 0 1.649-.636 1.649-1.475v-9.248l-.003-.218v.026c.65-.318 1.283-.538 2.413-.538a7.807 7.807 0 01.328.006c.862 0 1.56-.593 1.56-1.478 0-.79-.415-1.74-1.878-1.74zM39.924 18.196c-.122 0-.336.03-.55.03-1.832 0-2.077-.925-2.077-3.469V9.7h2.719c.855 0 1.557-.607 1.557-1.387 0-.81-.702-1.417-1.557-1.417h-2.719V3.311c0-.78-.61-1.445-1.648-1.445C34.58 1.866 34 2.502 34 3.31v11.648C34 18.92 35.13 21 39.619 21c1.191 0 2.35-.174 2.35-1.502 0-.984-.732-1.302-2.045-1.302zM55.649 6.057c-.947 0-1.649.664-1.649 1.445v12.053c0 .838.702 1.445 1.649 1.445.917 0 1.649-.607 1.649-1.445V7.502c0-.78-.732-1.445-1.65-1.445zm12.275 12.139c-.122 0-.335.03-.55.03-1.832 0-2.076-.925-2.076-3.469V3.311c0-.78-.61-1.445-1.649-1.445-1.068 0-1.649.636-1.649 1.445V14.96c0 3.959 1.13 6.04 5.619 6.04 1.192 0 2.352-.174 2.352-1.502 0-.984-.734-1.302-2.047-1.302zm29.66 0c-.122 0-.336.03-.55.03-1.832 0-2.077-.925-2.077-3.469V9.7h2.719c.855 0 1.557-.607 1.557-1.387 0-.81-.702-1.417-1.557-1.417h-2.719V3.311c0-.78-.61-1.445-1.648-1.445-1.07 0-1.65.636-1.65 1.445v3.584H86.3V3.311c0-.78-.611-1.445-1.649-1.445-1.07 0-1.65.636-1.65 1.445V14.96c0 3.959 1.131 6.04 5.62 6.04 1.19 0 2.351-.174 2.351-1.502 0-.984-.733-1.302-2.046-1.302-.122 0-.335.03-.55.03-1.832 0-2.076-.925-2.076-3.469V9.7h5.36v5.26c0 3.96 1.13 6.041 5.62 6.041 1.191 0 2.35-.174 2.35-1.502 0-.984-.732-1.302-2.045-1.302zm-66.749-.437v-.001c-.011-.06-.018-.133-.026-.206l-.002-.025-.006-.044c-.006-.067-.007-.148-.008-.226-.002-.045-.005-.082-.005-.13V7.444c0-.81-.55-1.416-1.649-1.416-1.1 0-1.65.606-1.65 1.416v9.012c.008.302.044.742.086 1.064-.008.004-.015.008-.024.011-.977.492-1.954.78-2.87.78-1.588 0-2.382-1.04-2.382-2.89V7.445c0-.81-.61-1.416-1.649-1.416-1.07 0-1.65.606-1.65 1.416v7.978C19 18.745 20.802 21 24.253 21c1.404 0 2.9-.319 4.275-1.156.052-.033.052-.033 0 0 .397.578.917.982 1.588.982.794 0 1.558-.549 1.558-1.387 0-.347-.153-.578-.337-.78-.224-.3-.416-.44-.502-.9zm42.463-6.991c0-1.387.977-2.255 2.688-2.255 1.496 0 2.32.608 2.32 2.14 0 1.214-.58 1.994-2.32 1.994-.459 0-1.65-.058-2.688-.174v-1.705zm2.718 4.307c3.878 0 5.558-1.62 5.558-4.336 0-2.89-1.832-4.798-5.528-4.798-3.94 0-6.046 2.168-6.046 5v5.116C70 18.861 72.138 21 75.894 21c1.801 0 5.405-.491 5.405-2.225 0-.579-.459-1.301-1.497-1.301-.366 0-.58.086-.672.145-1.007.433-1.831.722-2.962.722-1.923 0-2.87-.839-2.87-2.139v-1.33c.977.145 1.863.203 2.718.203zM13.087 0c-.916 0-1.71.694-1.71 1.532l-.009 13.019C8.367 9.384 4.346 2.424 3.451.94 3.115.421 2.443.074 1.77.074.732.074 0 .768 0 1.693v17.775C0 20.278.702 21 1.649 21c.915 0 1.71-.723 1.71-1.532V6.606l7.94 13.556c.26.42.814.718 1.37.801l.03.004c.083.012.167.032.249.033.015 0 .029-.003.045-.003h.002l.098-.005h.005c.063-.005.127-.01.186-.018l.138-.026.002-.001a1.74 1.74 0 00.765-.381l.041-.037h.002l.074-.073.012-.01c.01-.01.018-.023.028-.034.028-.032.056-.065.082-.098l.012-.017v-.002l.016-.02c.006-.01.016-.019.022-.028l.012-.021.031-.044c.035-.058.07-.129.07-.129v-.001h-.001c.086-.18.135-.378.135-.585l.01-17.935C14.736.694 14.004 0 13.088 0zm42.828 1.606C54.82 1.606 54 2.354 54 3.303 54 4.223 54.821 5 55.915 5c1.063 0 1.885-.747 1.915-1.697 0-.92-.852-1.697-1.915-1.697z" fill="#24422B"/></svg>