<svg xmlns="http://www.w3.org/2000/svg" width="64" height="64"><path fill="#264de4" d="M60.232 0l-5.141 57.593L31.98 64 8.936 57.602 3.8 0z"/><path fill="#2965f1" d="M32.016 59.103l18.674-5.177L55.083 4.71H32.016z"/><path fill="#ebebeb" d="M32.016 26.074H15.573l.634 7.064h15.809zm0-14.299H14.302l.641 7.064h17.073zM16.522 36.67l.99 11.093 14.471 4.018.033-.01v-7.35l-.031.009-7.868-2.125-.503-5.634h-3.823z"/><path fill="#fff" d="M40.691 33.138l-.82 9.163-7.88 2.126v7.35l14.484-4.014.106-1.193 1.66-18.6.172-1.896 1.276-14.3H31.992v7.065h9.954l-.642 7.235h-9.312v7.064z"/></svg>