<svg width="100" height="36" version="1.1" id="Layer_1" xmlns="http://www.w3.org/2000/svg" xmlns:xlink="http://www.w3.org/1999/xlink" x="0px" y="0px" viewBox="0 0 332.69 120.87" style="enable-background:new 0 0 332.69 120.87;" xml:space="preserve">
          <style type="text/css">
          .st0{fill:#223545;}
          </style>
          <path class="st0" d="M279.6,42.51h-8.38v59.45h8.38V42.51z"></path>
          <path class="st0" d="M307.06,17.37h-8.38v84.59h8.38V17.37z"></path>
          <path class="st0" d="M114.4,17.37h-8.38v84.59h8.38V17.37z"></path>
          <path class="st0" d="M86.94,17.37h-8.38v84.59h8.38V17.37z"></path>
          <path class="st0" d="M281.66,21.74c0-3.42-2.61-5.88-6.04-5.88c-3.16,0-5.77,2.73-5.77,5.88c0,3.55,2.61,6.01,5.77,6.01
          C279.05,27.89,281.66,25.02,281.66,21.74z"></path>
          <path class="st0" d="M129.64,63.97c0-13.94,8.79-22.82,21.42-22.82c5.9,0,12.91,3.01,14.69,6.97c0,0,0.14,0.14,0.14,0v-5.33h8.38
          v59.17h-8.38v-5.33c0-0.14-0.14,0-0.14,0c-1.65,3.96-8.65,6.97-14.69,6.97c-12.63,0-21.42-8.88-21.42-22.82V63.97z M165.76,62.19
          c0-7.79-6.73-13.39-14.28-13.39s-13.46,5.74-13.46,13.39v20.09c0,7.65,5.9,13.39,13.46,13.39c7.55,0,14.28-5.6,14.28-13.39V62.19z"></path>
          <path class="st0" d="M218.21,95.27c-9.47,0-16.2-6.97-16.2-15.44c0-7.1,5.14-13.47,13.22-18.9l20.42,24.64
          C231.53,91.03,225.22,95.27,218.21,95.27z M209.43,35c0-6.42,4.81-10.66,10.99-10.66c4.81,0,9.75,3.28,9.75,9.43
          c0,7.74-6.68,12.49-13.17,16.69C211.34,43.63,209.43,39.24,209.43,35z M249.13,101.83h10.43l-37.93-45.77
          c10.11-7.13,16.9-14.32,16.9-22.97c0-10.39-8.79-16.81-18.13-16.81c-10.85,0-19.64,7.93-19.64,18.72c0,5.74,3.14,12.68,9.87,20.33
          c-9.7,6.24-17.29,14.18-17.29,24.9c0,13.8,10.3,23.23,24.72,23.23c9.06,0,17.18-4.79,22.67-11.76L249.13,101.83z"></path>
          <path class="st0" d="M54.39,84.61c-1.37,5.88-5.49,11.21-13.32,11.21c-8.24,0-13.87-5.88-13.87-13.8v-7.38h36.11V63.01
          c0-11.62-8.24-21.87-22.25-21.87c-12.63,0-22.25,9.57-22.25,21.87V81.6c0,12.3,9.61,21.87,22.25,21.87
          c12.08,0,19.5-7.52,21.42-16.81L54.39,84.61z M27.2,62.6c0-7.93,5.63-13.8,13.87-13.8c9.2,0,13.87,7.24,13.87,13.8v4.78H27.2V62.6z"></path>
      </svg>