<svg xmlns="http://www.w3.org/2000/svg" xmlns:xlink="http://www.w3.org/1999/xlink" id="Layer_1" x="0" y="0" version="1.1" viewBox="0 0 548.1 108.3" xml:space="preserve" style="enable-background:new 0 0 548.1 108.3"><g><path d="M63.4,0.1c-6.8,0-13.8,6.4-14.9,10c-2.2-6.3-7.7-10-15.6-10c-5,0-13.9,6.5-15.7,12.9V1.9H0v61.4h17.2V29.8 c0-8.9,3.6-13.5,8.9-13.5s8.3,4.8,8.3,13.5v33.5h17.2V36.7c0-1.9,0.2-3.4,0.2-4.6c0-9.3,2.7-15.8,8.5-15.8c7.2,0,8.4,8.8,8.4,14.9 v32h16.3v-38C84.9,8.5,78.2,0.1,63.4,0.1z"/><polygon points="322.5 108.3 339.6 90.2 339.6 .1 322.5 .1"/><path d="M156.6,0.1c-18,0-32.6,14.6-32.6,32.6s14.6,32.6,32.6,32.6s32.6-14.6,32.6-32.6S174.6,0.1,156.6,0.1z M156.6,49.1 c-9.1,0-16.4-7.3-16.4-16.4s7.3-16.4,16.4-16.4S173,23.6,173,32.7S165.6,49.1,156.6,49.1z"/><path d="M532,26.9L532,26.9c-1.8-0.7-7.5-1.9-9.1-2.6c-1.6-1-3.4-2.7-3.7-4.5c-0.6-3.6,3.4-6.5,7.3-6.4c3.4,0,7.1,2.2,8.5,3.4 c1.1,0.9,3,3,3.2,3.2c0.1-0.1,9.8-9.6,9.8-9.6s-0.9-1.1-1.5-1.6C542.1,3.8,535.4,0,527.4,0c-12.8,0-23.2,8.8-23.2,19.8 c0,8,5.7,14.9,13.7,18c0.3,0.1,0.8,0.3,1.2,0.4c0,0,0.1,0,0.1,0v0c1.8,0.8,7.1,1.8,8.6,2.5c2.1,0.8,3.5,2.7,3.8,4.7 c0.6,3.9-3.9,6.7-7.4,6.4c-2.7-0.2-4.9-1.1-7.1-2.9c-2.7-2.2-4.5-4-4.5-4.1l-10,9.8l1.6,1.7c4.4,4.9,11.2,8.7,19.1,8.7 c12.8,0,24.1-8,24.1-19.8C547.6,37,540.1,29.8,532,26.9z"/><path d="M251.4,13V1.9h-17.2v61.4h17.2V34.2c0-8.8,12.6-19.3,22.6-14.7V2.1C263.1-4.3,252.3,8.3,251.4,13z"/><path d="M433.8,13c-3.6-8.3-13-13-20.8-13c-14.6,0-28,14.6-28,32.6c0,18,13.3,32.6,28,32.6c7.8,0,17.2-5.4,20.8-13.3v11.3h16.3V1.9 h-16.3V13z M414.8,49.1c-9.9,0-15-8.5-15-16.4c0-8,5.5-16.4,15-16.4c7.7,0,16.3,7.8,16.3,16.4C431.1,41.3,422.6,49.1,414.8,49.1z"/></g></svg>