<svg xmlns="http://www.w3.org/2000/svg" id="Layer_1" data-name="Layer 1" viewBox="0 0 403.51 94.31"><path d="M202.38,69.22h0Z"/><path d="M47.64,77.74V53.8H63.42V77.32c0,2.84,1.21,3.53,3,3.53s3-.69,3-3.53V53.8H85.31V77.74c0,10.42-6.1,16.57-18.84,16.57S47.64,88.16,47.64,77.74Z"/><path d="M132.28,70.32c0,11.31-7,16.37-20.94,16.37h-4.79v6.57H90.77V53.8h22.57C123.91,53.8,132.28,58.85,132.28,70.32Zm-16.31,0c0-2.94-1.47-3.37-3-3.37h-6.42v6.58h5.21C114.34,73.53,116,72.79,116,70.32Z"/><path d="M178,70.32c0,11.31-7,16.37-20.93,16.37h-4.79v6.57H136.44V53.8H159C169.59,53.8,178,58.85,178,70.32Zm-16.31,0c0-2.94-1.47-3.37-3-3.37h-6.42v6.58h5.21C160,73.53,161.64,72.79,161.64,70.32Z"/><path d="M181,73.22c.05-13.37,8.36-20.47,20-20.47,14.83,0,20.93,6.52,20.93,21.1,0,13.1-8.57,20.46-20.09,20.46C187.18,94.31,181.08,87.79,181,73.22Zm24.35.63c0-5.68-1.58-7.47-4.26-7.47-1.73,0-3.47,1.26-3.52,6.84s1.63,7.47,4.26,7.47C203.7,80.69,205.38,79.42,205.38,73.85Z"/><path d="M269.51,92.47v.79H252.56c-.73-1.52-1-3.84-1-7.36s-1.42-4-3.68-4h-5.73V93.26H226.36V53.8h23.1c10.26,0,18.41,3.84,18.41,12.58,0,5.05-1.89,8.68-8.26,9.31v.68c5.74.74,8.26,4.58,8.26,9A12.66,12.66,0,0,0,269.51,92.47ZM242.15,67v4.48h5.73c2.26,0,3.68-.53,3.68-2.16,0-2-1.21-2.32-2.47-2.32Z"/><path d="M309.1,68H297.9V93.26H282.11V68H271.22V53.8H309.1Z"/><path d="M351.77,80.63V93.26H314.36V53.8h37.31V66.43H330.15v3.16h20v7.89h-20v3.15Z"/><path d="M402.59,53.8V93.26H376.81l-4.47-25.73h-.84V93.26H358.08V53.8h25.78l4.42,25.52h.9V53.8Z"/><path d="M16.84,78.42c9.89.32,11.26.64,11.26,2.21,0,1-1.05,1.37-5.57,1.37-4.94,0-6.18-.48-6-2.38L1.11,80.74c-1,7.05,5.26,13.57,20.36,13.57C36.05,94.31,43,89.47,43,80.63c0-7.15-3.75-10.84-12.85-11.22,0,0-3.57-.37-7.32-.59s-7.68-.33-7.61-1.76c.06-1,1.8-1.39,5.72-1.44,3.67,0,6.13.54,6.17,2.17l14.68-2.47c-.58-8.83-9.15-12.57-20.36-12.57-12.78,0-20.41,4.84-20.41,14.31,0,8.31,4.94,10.79,10.57,11.1l5.06.25"/><path d="M151,40.65H137.87V14.92h-.58l-3.68,25.73H113l-3.69-25.73h-.57V40.65H95.62V1.19h25L123,27.24h.69l2.36-26h25Z"/><path d="M157.33,25.13V1.19h15.79V24.71c0,2.84,1.21,3.53,3,3.53s3.05-.69,3.05-3.53V1.19H195V25.13c0,10.42-6.11,16.57-18.84,16.57S157.33,35.55,157.33,25.13Z"/><path d="M246.36,40.65V1.19h15.78V40.65Z"/><path d="M283.77,22.19h-.53l.47,18.46H267.93V1.19h15.78l-.47,18.57h.63l7.94-18.57h16.63l-9.21,17.89-11.57,1.68v.58l12.68,1.84L309,40.55l-17.94.1Z"/><path d="M215.11,25.67c9.89.32,11.26.64,11.26,2.21,0,1-1.05,1.37-5.58,1.37-4.93,0-6.18-.48-6-2.38L199.38,28c-1,7.05,5.26,13.57,20.36,13.57,14.57,0,21.57-4.84,21.57-13.68,0-7.15-3.75-10.84-12.85-11.22,0,0-3.58-.37-7.33-.59s-7.67-.33-7.6-1.76c.06-1.05,1.8-1.39,5.72-1.44,3.66,0,6.12.54,6.16,2.17l14.69-2.47C239.52,3.74,230.94,0,219.74,0,207,0,199.33,4.84,199.33,14.31c0,8.31,4.94,10.79,10.57,11.1l5.06.25"/></svg>