<svg xmlns="http://www.w3.org/2000/svg" xmlns:xlink="http://www.w3.org/1999/xlink" width="284" height="44" version="1.1" viewBox="0 0 284 44"><title>Soft_Goat_Logotyp_Vit Copy</title><desc>Created with Sketch.</desc><defs><polygon id="path-1" points=".06 .889 283.464 .889 283.464 44 .06 44"/></defs><g id="Soft_Goat_Logotyp_Vit-Copy" fill="none" fill-rule="evenodd" stroke="none" stroke-width="1"><mask id="mask-2" fill="#fff"><use xlink:href="#path-1"/></mask><path id="Fill-1" fill="#000" d="M9.092,11.867 C9.092,9.079 10.646,7.372 13.467,7.372 C16.23,7.372 17.955,9.022 19.28,12.891 L26.416,10.842 C25.033,5.041 20.718,0.889 13.639,0.889 C5.41,0.889 1.152,5.326 1.152,12.379 C1.152,23.868 18.878,23.981 18.878,31.716 C18.878,34.789 16.747,36.608 13.984,36.608 C11.625,36.608 8.747,34.844 7.828,29.896 L0,31.546 C2.13,39.622 7.136,43.092 13.582,43.092 C21.928,43.092 26.819,38.428 26.819,31.375 C26.819,18.521 9.092,18.066 9.092,11.867 Z M147.924,44 C147.924,44 147.934,43.987 147.956,43.962 C147.924,43.987 147.911,44 147.911,44 L147.924,44 Z M80.308,8.396 L93.085,8.396 L93.085,1.457 L72.367,1.457 L72.367,42.524 L80.308,42.524 L80.308,24.777 L90.323,24.777 L90.323,17.838 L80.308,17.838 L80.308,8.396 Z M128.287,1.457 L101.815,1.457 L101.815,8.396 L111.079,8.396 L111.079,42.524 L119.022,42.524 L119.022,8.396 L128.287,8.396 L128.287,1.457 Z M61.685,14.653 C61.685,4.529 56.274,0.889 48.565,0.889 C40.851,0.889 35.442,4.529 35.442,14.653 L35.442,29.329 C35.442,39.452 40.851,43.092 48.565,43.092 C56.274,43.092 61.685,39.452 61.685,29.329 L61.685,14.653 Z M53.742,30.353 C53.742,34.901 51.729,36.152 48.565,36.152 C45.398,36.152 43.384,34.901 43.384,30.353 L43.384,13.631 C43.384,9.079 45.398,7.828 48.565,7.828 C51.729,7.828 53.742,9.079 53.742,13.631 L53.742,30.353 Z M176.192,39.11 L177.4,42.524 L181.545,42.524 L181.545,21.478 L168.02,21.478 L168.02,27.962 L173.604,27.962 L173.604,30.465 C173.604,33.992 171.761,36.152 168.77,36.152 C165.605,36.152 163.589,34.901 163.589,30.353 L163.589,13.631 C163.589,9.079 165.605,7.828 168.77,7.828 C171.648,7.828 173.604,9.534 173.604,14.825 L181.545,14.825 C181.258,5.496 176.885,0.889 168.77,0.889 C161.057,0.889 155.649,4.529 155.649,14.653 L155.649,29.329 C155.649,39.452 161.057,43.092 168.77,43.092 C171.761,43.092 174.064,41.499 176.192,39.11 Z M204.055,43.092 C211.764,43.092 217.174,39.452 217.174,29.329 L217.174,14.653 C217.174,4.529 211.764,0.889 204.055,0.889 C196.34,0.889 190.932,4.529 190.932,14.653 L190.932,29.329 C190.932,39.452 196.34,43.092 204.055,43.092 Z M198.874,13.631 C198.874,9.079 200.887,7.828 204.055,7.828 C207.218,7.828 209.233,9.079 209.233,13.631 L209.233,30.353 C209.233,34.901 207.218,36.152 204.055,36.152 C200.887,36.152 198.874,34.901 198.874,30.353 L198.874,13.631 Z M233.969,1.457 L223.666,42.524 L231.322,42.524 L233.566,33.877 L244.557,33.877 L246.571,42.524 L254.167,42.524 L244.154,1.457 L233.969,1.457 Z M235.005,26.939 L238.918,10.331 L239.032,10.331 L242.889,26.939 L235.005,26.939 Z M256.989,1.457 L256.989,8.396 L266.255,8.396 L266.255,42.524 L274.197,42.524 L274.197,8.396 L283.464,8.396 L283.464,1.457 L256.989,1.457 Z" mask="url(#mask-2)"/></g></svg>