<svg xmlns="http://www.w3.org/2000/svg" xmlns:xlink="http://www.w3.org/1999/xlink" id="Lager_1" x="0" y="0" version="1.1" viewBox="0 0 570.55 102.17" xml:space="preserve" style="enable-background:new 0 0 570.55 102.17"><style type="text/css">.st0{fill:#4d5334}</style><g><g><path d="M377.71,45.36v19.05c0,5.82,0.69,7.56,4.74,7.56h2.81v2h-23.68v-2h2.08c4.04,0,4.73-1.74,4.73-7.56V39.84 c0-7.7-4.85-9.55-4.85-9.55h14.17v3.24V45.36z" class="st0"/><path d="M350.55,29.2c-5.06,0-9.16,3.03-11.09,9.12v-4.8v-3.4h-14.17c0,0,4.85,2.01,4.85,9.71v24.58 c0,5.82-0.69,7.56-4.73,7.56h-2.08v2H347v-2h-2.81c-4.05,0-4.74-1.74-4.74-7.56V45.93c0.96-7.07,5.05-13.25,9.71-13.25 c1.47,0,3.59,0.34,3.59,2.27c0,0.37,0,0.92-0.18,1.47c0,0-3.46,0.05-3.57,3.35c-0.12,3.67,1.82,4.94,4.94,4.94 c3.03,0,5.88-1.84,5.88-7.17C359.83,32.69,356.24,29.2,350.55,29.2z" class="st0"/><path d="M120.38,29.2c-5.97,0-9.16,2.69-11.09,8.78v-4.46v-3.4H95.13c0,0,4.85,2.01,4.85,9.71v24.58 c0,5.82-0.69,7.56-4.73,7.56h-2.08v2h23.68v-2h-2.81c-4.05,0-4.74-1.74-4.74-7.56V46.77c0-6.72,4.33-14.08,9.71-14.08 c1.47,0,3.74,0.34,3.74,2.27c0,0.37-0.15,0.92-0.34,1.47c0,0-3.46,0.05-3.57,3.35c-0.12,3.67,1.82,4.94,4.94,4.94 c3.03,0,5.88-1.84,5.88-7.17C129.66,32.69,126.08,29.2,120.38,29.2z" class="st0"/><path d="M425.22,65.57c-2.57,4.72-8.64,8.78-17.09,8.78c-14.15,0-20.49-8.91-20.49-22.33 c0-16.08,6.26-23.89,21.32-23.25c11.34,0.48,17.3,6.83,16.84,20.13c-0.02,0.7-0.9,0.82-0.9,0.82h-27.62v1.29 c0,13.24,3.03,20.22,13.05,20.22c4.43,0,9.03-2.36,11.23-5.08L425.22,65.57z M416.59,47.24c0.31-10.45-2.48-16.23-8.46-16.27 c-8.56-0.05-10.11,5.79-10.75,16.27H416.59z" class="st0"/><path d="M531.26,58.97h2.39c0.55,8.27,7.53,12.23,14.89,12.23c7.72,0,10.94-3.03,10.94-8.27 c0-5.88-5.7-6.99-11.95-8.08c-7.35-1.29-15.44-2.67-15.44-12.32c0-7.63,6.08-14.04,15.27-14.04c3.86,0,6.05,0.99,8.9,2.28 c4.09,2.38,5.8,0.82,5.88,0.92c0.04,0.05,0,10.38,0,10.38h-2.3c-1.66-7.26-6.16-10.84-12.59-10.84c-5.79,0-9.92,2.58-9.92,7.08 c0,5.61,5.6,6.53,11.76,7.63c7.35,1.38,15.44,3.12,15.44,13.97c0,8.27-5.79,14.5-16.08,14.5c-5.24,0-9.03-1.1-12.16-2.85 c-2.67-1.49-4.36-0.1-4.75,1.01c-0.14,0.4-0.28,0.1-0.28,0.1V58.97z" class="st0"/><g><path d="M14.86,71.5c-1.99-2.36-3.06-3.69-3.06-5.97c0-3.69,2.39-7.01,6.28-8.72l10.72,1.43h-2.89 c-5.36,0-8.42,1.7-8.42,4.64c0,2.56,2.47,2.74,7.59,2.84l4.54,0.1c5.69,0.18,8.93,1.06,11.91,2.5c4.54,2.19,8.08,5.69,7.93,13.22 c-0.2,10.43-10.79,18.62-22.17,18.62c-11.14,0-21.04-7.63-21.04-16.64C6.26,78.78,10.07,74.74,14.86,71.5 M26.9,74.26 c-6.77,0-17.17,1.42-17.43,9.17c-0.25,7.31,7.59,11.33,17.74,11.33c9.4,0,18.71-5.15,18.71-11.32 C45.93,74.47,30.54,74.26,26.9,74.26" class="st0"/><path d="M32.64,28.83v-5.38c0-4.17,2.24-6.48,6.35-6.48c3.07,0,5.57,2.12,5.57,4.75c0,2.3-1.73,4.1-3.98,4.1 c-1.98,0-3.39-1.29-3.39-3.14c0-0.19,0.06-0.45,0.06-0.7c0.06-0.26,0.06-0.52,0.06-0.7c0-0.58-0.38-0.97-0.96-0.97 c-1.22,0-1.98,1.61-1.98,4.17v4.35" class="st0"/><path d="M18.8,57.1c-5.88-2.3-8.09-7.26-8.09-13.6c0-8,5.33-15.62,17.55-15.62c3.68,0,6.9,0.92,9.65,2.85 c0,0,1.24,0.82,2.11,1.65c2.49,2.67,4.05,5.7,4.05,10.48c0,9.46-6.25,15.62-16.27,15.62c-2.3,0-4.59-0.28-6.43-0.65 M27.72,56.09 c4.5,0,7.63-2.85,7.63-12.87c0-9.56-2.58-13.14-7.72-13.14c-4.78,0-8,3.03-8,13.24C19.63,53.05,22.57,56.09,27.72,56.09z" class="st0"/></g><path d="M75.72,51.08v-6.71c0-8.36-1.93-13.79-9.56-13.79c-3.58,0-6.69,1.01-6.69,4.14c0,0.37,0.09,0.83,0.18,1.29 c0,0,3.31,1.04,3.31,3.58c0,3.31-2.21,5.24-5.24,5.24s-4.78-2.3-4.78-5.79c0-6.8,6.69-10.66,15.24-10.66 c11.03,0,16.36,4.13,16.36,17.37V64.4c0,6.94,5.18,9.48,5.18,9.48s-2.65,0.08-5.28,0.08c-4.87,0-7.81-2.3-8.45-6.62 c-2.3,4.23-7.08,6.62-12.77,6.62c-6.9,0-12.78-2.76-12.78-10.66c0-9.28,8.09-12.23,19.76-12.23H75.72z M75.72,61.46v-8.09h-3.4 c-9.46,0-12.41,4.41-12.41,9.83c0,4.5,2.02,7.26,6.52,7.26C71.22,70.47,75.72,67.07,75.72,61.46z" class="st0"/><path d="M159.59,28.42c-7.26,0-11.95,3.31-14.89,8V8.28h-13.4c0,0,0.02,0.01,0.02,0.01c-0.38,0-0.63,0-0.63,0 s5.18,2.55,5.18,9.48l0.01,0c0,9.77,0,33.46,0,46.63l-0.01,0c0,6.94-5.18,9.48-5.18,9.48s2.65,0.08,5.28,0.08 c4.28,0,6.97-1.88,8.02-5.25c3.13,3.44,7.3,5.29,13.58,5.29c11.76,0,19.39-8,19.39-23.25C176.96,35.86,170.43,28.42,159.59,28.42z M156.34,70.42c-7.44,0-11.91-4.14-11.91-11.4V44.87c0-7.81,6.41-12.44,12.57-12.44c8.36,0,10.31,6.93,10.31,18.69 C167.31,65.36,163.97,70.42,156.34,70.42z" class="st0"/><path d="M473.42,65.01V44.32c0-11.12-5.15-15.34-13.6-15.34c-9.28,0-14.06,5.05-16.17,9.56v-2.55l0.01-2.57v-3.52 h-0.01v0h-12.63l0,0h-1.09c0,0,4.85,2.13,4.85,9.83V64.3c0,5.82-0.69,7.56-4.73,7.56h-2.08v2h23.24l-0.06-2h-2.81 c-3.46,0-4.46-1.29-4.68-5.3v-18.5c0-8.55,6.17-15.37,13.33-15.37c5.7,0,7.9,3.41,7.9,10.21l-0.14,23.11l-0.01,1.14 c0.16,3.75,3.58,6.62,8.45,6.62c2.63,0,5.37,0.02,5.37,0.02S473.78,71.38,473.42,65.01z" class="st0"/><path d="M522.49,64.83V14.05V8.42h-6.84h-1.58c-0.02,0-0.04,0-0.06,0c-2.63,0-5.37-0.02-5.37-0.02s4.91,2.64,5.02,9.4 v17.89c-2.48-3.86-6.43-6.43-12.87-6.43c-11.85,0-19.39,8-19.39,23.25c0,14.89,6.99,22.33,17.83,22.33c7.26,0,11.49-3.31,14.43-8 l0.04,0.01l-0.01,0.51c0.16,3.75,3.58,6.62,8.45,6.62c2.63,0,5.37,0.02,5.37,0.02S522.62,71.56,522.49,64.83z M501.26,71.34 c-8.09,0-10.2-7.44-10.2-19.21c0-13.42,3.4-20.03,11.31-20.03c7.17,0,11.58,6.8,11.58,11.85v14.43 C513.94,66.2,507.69,71.34,501.26,71.34z" class="st0"/><path d="M204.22,28.21c12.87,0,20.41,7.08,20.41,22.51c0,14.24-7.54,23.07-20.77,23.07 c-13.05,0-20.68-8.27-20.68-22.61C183.17,36.39,191.63,28.21,204.22,28.21z M204.03,30.42c-9.37,0-11.21,9.1-11.21,20.13 c0,11.21,1.93,21.05,11.21,21.05c8.91,0,10.94-8.64,10.94-20.86C214.97,39.79,213.13,30.42,204.03,30.42z" class="st0"/><path d="M371.69,11.26c3.22,0,5.61,1.57,5.61,5.42c0,3.31-1.93,5.61-5.51,5.61c-4.23,0-5.61-2.85-5.61-5.61 C366.18,13.74,368.11,11.26,371.69,11.26z" class="st0"/><path d="M316.56,8.25c-12.32,0-17.37,8.55-17.37,21.96v5.33h-2.8v2.39h2.8v26.76l-0.02,0c0,5.82-0.97,7.28-5.01,7.28 h-2.08v2h23.68v-2h-2.81c-3.53,0-4.69-1.33-4.93-5.53V37.93h5.15v-2.39h-5.15V23.23c0-6.62,0.92-12.78,7.9-12.78 c3.58,0,5.15,1.29,5.15,3.58c0,0.55,0.22,1.31-1.29,2.01c-1.13,0.52-1.92,1.5-1.92,2.95c-0.02,3.22,2.11,4.96,5.33,4.96 c3.31,0,5.24-2.39,5.24-6.16C328.42,11.55,323,8.25,316.56,8.25z" class="st0"/></g><path d="M281.3,58.54c3.28-7.75,1.99-18.57-2.11-23.44c-3.03-3.6-8.13-4.57-11.21-1.49c-1.67,1.67-2.51,4.57-0.34,7.54 c0.8,1.1,2.72,2.24,4.96,2.12c6.45-0.35,9.42,6.19,6.95,13.21c-2.58-2.74-5.66-5.06-8.87-7.38c-6.19-4.47-17.33-13.56-17.33-13.56 c-4.47-3.86-7.2-9.56-7.2-15.65c0-8.23,5.39-12.5,10.75-12.66c6.52,0.03,8.31,6.15,4.84,9.44c-2.24,2.04-2.56,3.65-2.39,5.37 c0.38,3.93,3.72,6.45,8.03,6.03c4.67-0.46,7.52-4.2,7.03-9.23c-0.72-7.37-5.86-13.75-18-13.46c-8.5,0.2-18.8,7.77-18.8,19.33 c0,6.09,2.84,11.88,6.5,15.74c-7.52,4.47-12.69,9.85-12.69,18.68c0,14.12,12.21,22.02,25.77,20.87 c9.93-0.84,14.35-4.24,19.81-11.52c6.55,6.79,3.05,18.02-0.73,20.76c-1.52,1.1-2.58,1.54-4.88,1.2c-2.59-0.53-1.85-2.54-2.16-3.76 c-0.33-1.3-1.8-2.53-2.99-2.87c-2.71-0.77-5.26,0.8-6.11,3.77c-0.91,3.23,0.83,6.1,4.31,7.09c2.29,0.65,7.49,0.06,13.54-3.99 c4.32-2.89,8.17-8.21,8.47-14.22C286.85,68.43,284.72,62.92,281.3,58.54z M258.16,75.33c-10.15-0.08-16.81-6.3-17.3-16.88 c-0.34-7.2,2.25-12.31,5.7-15.66c4.67,4.07,10.82,8.02,16.56,12.53c5.88,4.62,8.62,7.47,12.18,11.34 C271.11,71.72,267.13,75.41,258.16,75.33z" class="st0"/></g></svg>