<svg xmlns="http://www.w3.org/2000/svg" xmlns:xlink="http://www.w3.org/1999/xlink" width="130" height="32" version="1.1" viewBox="0 0 130 32"><title>DSLogo</title><defs><polygon id="path-1" points=".025 1.109 129.918 1.109 129.918 31.54 .025 31.54"/></defs><g id="DSLogo" fill="none" fill-rule="evenodd" stroke="none" stroke-width="1"><path id="Fill-1" fill="#F66" d="M38.7519683,10.867619 C39.4770794,10.867619 40.0647619,10.2799365 40.0647619,9.55565079 C40.0647619,8.83095238 39.4770794,8.24244444 38.7519683,8.24244444 C38.0280952,8.24244444 37.4404127,8.83095238 37.4404127,9.55565079 C37.4404127,10.2799365 38.0280952,10.867619 38.7519683,10.867619"/><mask id="mask-2" fill="#fff"><use xlink:href="#path-1"/></mask><path id="Fill-2" fill="#F66" d="M125.533365,19.5252063 C124.714159,19.5252063 124.022063,19.0307937 123.827683,18.1707302 C125.022857,16.2624127 125.464444,15.5418413 125.464444,15.5418413 C126.872159,16.2908889 127.335619,16.8113016 127.335619,17.7241905 C127.335619,18.688254 126.471841,19.5252063 125.533365,19.5252063 Z M104.81673,17.0783175 C104.094921,16.9045714 103.574508,16.3375238 103.331841,15.915746 C102.576603,14.5996508 103.206794,13.6434286 103.782921,13.6434286 C105.024317,13.6434286 105.290095,15.5377143 104.81673,17.0783175 Z M102.16927,19.7233016 C101.720667,19.6362222 100.339778,19.1517143 100.933651,16.2966667 C101.130095,15.3536508 101.440444,14.9624127 101.440444,14.9624127 C101.515968,17.0675873 102.687619,18.5400952 104.106063,18.9259683 C103.736698,19.5396508 103.013238,19.888381 102.16927,19.7233016 Z M92.5496825,19.7930476 C92.0849841,19.9783492 91.9665397,19.5136508 92.2112698,19.0922857 C92.4551746,18.6713333 93.4460635,18.276381 93.4460635,18.276381 C93.4460635,18.276381 93.0927937,19.5759683 92.5496825,19.7930476 Z M126.461937,14.1180317 C126.461937,14.1180317 126.654667,13.8295556 126.654667,13.2513651 C126.654667,12.5840317 126.098349,11.8292063 125.107048,11.8292063 C124.46654,11.8292063 123.613492,12.3520952 123.613492,13.3178095 C123.613492,14.0833651 124.282476,14.6405079 124.282476,14.6405079 C121.864476,18.320127 120.735333,19.7113333 119.718032,19.4711429 C118.810508,19.2565397 118.522032,17.8884444 119.115079,15.8303175 C119.219079,15.468381 119.763429,13.553873 119.763429,13.553873 L121.818667,13.553873 L122.339905,11.5968571 L120.338317,11.5968571 C120.338317,11.5968571 120.669302,10.4578095 120.856667,9.82761905 C120.892159,9.7095873 120.963143,9.48549206 120.963143,9.22549206 C120.963143,8.20984127 120.046952,7.95603175 119.675937,7.95603175 C119.241365,7.95603175 118.603333,8.16898413 118.385016,8.91060317 C118.297937,9.20980952 117.861714,10.6769524 117.60419,11.5968571 L115.65419,11.5968571 L115.133365,13.553873 L117.042508,13.553873 C117.042508,13.553873 116.955841,13.8142857 116.350413,15.9528889 C116.344635,15.9731111 116.130444,16.7134921 115.927397,17.3544127 C115.927397,17.3544127 114.730984,19.9304762 113.54819,19.4451429 C113.017873,19.2276508 113.170984,18.3436508 113.257238,17.9676825 C113.586571,16.5290159 113.827587,15.4432063 113.196984,14.4226032 C112.821016,13.8142857 112.299778,13.4725714 111.837968,13.2220635 C111.932063,13.0074603 112.299778,11.6055238 112.299778,11.6055238 L109.731143,11.6018095 C109.133556,14.767619 108.141429,16.062254 107.351111,16.5900952 C107.50546,15.1811429 107.197587,13.7932381 106.312762,12.8551746 C105.673079,12.1762857 105.00327,11.9571429 104.26454,11.932381 C103.685937,11.9125714 103.120127,11.9984127 102.769333,12.192381 C101.937333,11.9530159 101.087175,12.0821905 100.244444,12.661619 C98.1590794,14.0953333 96.7740635,14.988 96.7740635,14.988 C96.7402222,14.489873 96.6032063,11.9356825 93.4406984,11.9393968 C92.3247619,11.9410476 91.7696825,12.2980317 91.1502222,12.7243492 L91.4779048,11.5766349 L88.5617778,11.5766349 L83.9585397,27.5592063 L86.866,27.5592063 C86.866,27.5592063 88.8353968,20.8429524 90.1539683,16.253746 C90.7734286,14.0990476 91.6590794,13.7544444 92.2546032,13.6533333 C93.4332698,13.454 94.3597778,14.532381 93.9495556,16.352381 C93.9495556,16.352381 93.5207619,16.5933968 92.43,17.1905714 C91.7395556,17.5686032 90.831619,18.1133651 90.5097143,19.0592698 C90.1911111,19.993619 90.3557778,21.3848254 91.6933333,21.7979365 C93.0919683,22.2308571 96.1975238,21.2824762 96.7129841,16.7741587 C96.7129841,16.7741587 97.0860635,16.5636825 98.5651746,15.8414603 C97.7273968,19.6758413 99.6150794,21.3080635 101.069429,21.7013651 C102.681429,22.1375873 104.432095,21.7909206 105.500571,20.7806349 C106.434921,19.8966349 106.759714,19.1133333 106.759714,19.1133333 C108.828984,18.688254 110.040254,16.8839365 111.110794,14.5625079 C111.959714,15.2950476 111.14381,16.6185714 110.74473,17.7035556 C110.142603,19.3403175 110.379905,21.4983175 112.374063,21.8239365 C114.105333,22.1066349 115.275333,21.0695238 115.88819,20.0154921 C116.532825,21.318381 117.533619,21.7632698 118.550508,21.834254 C119.701524,21.9159683 120.805079,21.7385079 122.365079,20.0691429 C122.824,20.9287937 123.986571,22.0855873 125.826794,22.0855873 C128.211365,22.0855873 129.918286,20.1426032 129.918286,18.1273968 C129.918286,15.7193016 127.87873,14.8852381 126.461937,14.1180317 L126.461937,14.1180317 Z" mask="url(#mask-2)"/><path id="Fill-4" fill="#F66" d="M63.4280317,13.1312698 C63.088381,12.3066984 63.184127,11.3471746 63.8795238,10.9943175 C64.501873,10.6786032 65.0193968,10.8651429 65.294254,11.101619 C65.896381,11.6179048 65.8200317,12.4309206 65.8419048,12.8394921 C65.8567619,13.163873 65.9813968,13.5175556 66.2971111,13.5934921 C66.6115873,13.6706667 66.8633333,13.4886667 67.1613016,13.1089841 C67.9425397,12.1127302 68.744,11.3120952 69.8677778,11.3748254 C70.7476508,11.4235238 71.0844127,12.0549524 71.0699683,12.8011111 C71.0386032,14.4774921 68.8273651,16.7791111 66.6396508,18.0374286 C65.0895556,16.3808571 63.816381,14.0742857 63.4280317,13.1312698 Z M52.567873,27.897619 C52.2624762,28.8534286 51.5955556,29.4361587 50.8675556,29.1220952 C50.2967937,28.8753016 49.9443492,28.2046667 50.076,27.1985079 C50.1824762,26.3892063 50.7028889,25.9500952 51.8105714,25.4792063 C53.1027302,24.9294921 53.4914921,24.7747302 53.4914921,24.7747302 C52.9199048,26.7350476 52.944254,26.7214286 52.567873,27.897619 Z M44.1966984,16.1563492 C44.3006984,14.2839365 44.6613968,12.8671429 45.2602222,10.6930476 C46.2032381,7.26806349 47.6410794,5.74933333 48.4095238,5.86736508 C48.9171429,5.94495238 49.0062857,6.45174603 49.0516825,6.78396825 C49.1461905,7.4748254 48.6810794,9.39552381 47.623746,11.4734603 C46.1941587,14.2826984 44.1966984,16.1563492 44.1966984,16.1563492 Z M29.1847937,18.2644127 C28.5583175,19.1574921 27.7007302,19.507873 27.0779683,19.5474921 C26.5831429,19.5800952 26.0581905,19.4595873 25.813873,18.9503175 C25.5811111,18.4633333 25.584,17.5615873 25.8704127,16.6330159 C26.3883492,14.9545714 27.1345079,14.0416825 28.5636825,13.6842857 C29.3845397,13.4787619 30.2693651,13.7214286 30.706,13.9368571 C30.706,13.9368571 29.834381,17.3383175 29.1847937,18.2644127 Z M85.8078413,15.5748571 C85.4562222,12.6962857 82.8752063,11.7809206 82.0811746,11.1626984 C81.2949841,10.5523175 79.8992381,9.86765079 79.7114603,8.09552381 C79.5604127,6.6671746 80.7741587,5.59333333 82.1715556,5.59333333 C82.7761587,5.59333333 83.4484444,5.83434921 83.8578413,6.49219048 C84.2416508,7.1095873 84.2858095,8.16444444 83.6139365,8.90028571 L86.0286349,10.0059048 C86.0286349,10.0059048 87.0182857,9.14171429 86.7021587,7.23215873 C86.4442222,5.67298413 84.8602857,3.97431746 82.3271429,3.97431746 C80.8133651,3.97431746 79.8942857,4.37628571 78.8039365,5.27184127 C77.774254,6.11704762 77.176254,7.62380952 77.2026667,9.04720635 C77.2426984,11.222127 78.5010159,12.4449524 80.0094286,13.6421905 C81.5178413,14.8386032 82.5318413,15.7626349 82.5409206,17.2252381 C82.5537143,19.2470476 81.076254,20.6114286 79.2442857,20.6027619 C78.0288889,20.5961587 76.8745714,19.9185079 76.6504762,18.5640317 C76.4858095,17.5648889 76.9649524,17.0287937 77.1642857,16.6416825 C77.3627937,16.253746 77.6355873,15.1122222 76.6071429,14.5105079 C75.7743175,14.0239365 74.823873,14.4519048 74.4086984,14.8014603 C73.9159365,15.217873 72.9716825,16.2871746 73.5469841,18.7509841 C72.8796508,19.6642857 71.7533968,20.0885397 70.9234603,20.144254 C70.1459365,20.196254 68.9965714,20.1409524 67.881873,19.2458095 C73.0290476,16.08 73.9394603,13.3058413 73.7917143,11.6546349 C73.7050476,10.6728254 73.0108889,9.5808254 72.0641587,9.23663492 C69.9280317,8.4615873 67.8443175,10.1788254 66.6305714,11.7313968 C66.7506667,10.8110794 66.4617778,9.86228571 65.9285714,9.27006349 C65.2967302,8.56847619 64.4383175,8.37946032 63.3958413,8.60231746 C62.0851111,8.88253968 61.0207619,10.0525397 61.0207619,12.0537143 C61.0207619,13.8778413 62.9872698,16.6969841 65.0371429,19.0328571 C60.9489524,20.8978413 56.9148254,21.8635556 56.9148254,21.8635556 L59.7026032,12.2026984 L57.1475873,12.2043492 C57.1475873,12.2043492 56.0440317,15.9574286 55.7860952,16.8740317 C55.189746,18.9981905 54.2591111,19.5825714 53.4419683,19.494254 C52.6949841,19.4129524 52.2113016,18.8368254 52.9256825,16.3243175 C53.2265397,15.2661587 53.5096508,14.3091111 53.6466667,13.8406984 C53.6875238,13.7028571 53.7634603,13.4585397 53.7634603,13.1927619 C53.7634603,12.227873 52.8943175,11.9237143 52.4519048,11.9237143 C51.917873,11.9237143 51.376,12.2336508 51.1646984,12.9356508 C50.9319365,13.7094603 50.8027619,14.1663175 50.032254,16.8335873 C48.6381587,18.7390159 47.3633333,19.7587937 45.8512063,19.4212063 C45.2866349,19.2953333 44.7398095,18.9131746 44.5309841,18.3585079 C44.5309841,18.3585079 46.2048889,16.7617778 46.8631429,16.0857778 C48.4487302,14.4572698 49.5514603,13.0458413 50.4767302,11.2720635 C52.2071746,7.95438095 51.5303492,4.21409524 47.8812698,4.00320635 C44.5148889,3.8092381 43.1282222,7.05511111 42.0366349,11.1606349 C41.348254,13.7490794 40.9330794,16.5706984 41.2487937,18.4773651 C39.9818095,19.347746 39.0746984,19.5953651 38.5972063,19.4364762 C37.9348254,19.2156825 37.5047937,18.6135556 37.842381,17.4736825 C38.5130159,15.2112698 38.6260952,14.8146667 38.8819683,13.9380952 C38.9834921,13.5901905 39.0346667,13.4048889 39.0346667,13.2410476 C39.0346667,12.3562222 38.3400952,11.9278413 37.7169206,11.9278413 C37.2790476,11.9278413 36.6748571,12.1680317 36.4590159,12.8774603 C36.3026032,13.3908571 36.0780952,14.1551746 35.1784127,17.189746 C35.1784127,17.189746 34.6947302,18.0345397 34.5131429,18.2895873 C33.7170476,19.403873 33.0006032,19.7253651 32.4046667,19.4930159 C31.8520635,19.2767619 32.0006349,18.5450476 32.3997143,17.1286667 C33.2110794,14.2492698 33.9972698,11.5947937 33.9972698,11.5947937 L31.3745714,11.5927302 L31.1352063,12.4148254 C30.2627619,11.9959365 29.4555238,11.8758413 28.0284127,12.0355556 C25.466381,12.322381 23.4788254,14.2133651 23.0108254,16.8810476 C22.5085714,19.7455873 23.4969841,21.5160635 25.3991111,21.8400317 C26.9281587,22.1000317 28.3635238,21.4116508 29.5071111,20.0934921 C29.5273333,20.196254 29.5071111,20.0934921 29.5426032,20.1917143 C29.8199365,20.9618095 30.3453016,21.5990159 31.1335556,21.8008254 C32.3270794,22.1066349 33.8619048,21.3146667 34.9716508,20.0435556 C35.0199365,20.175619 35.0773016,20.3027302 35.1433333,20.4244762 C35.5254921,21.128127 36.1734286,21.6031429 37.0161587,21.795873 C38.5138413,22.1367619 40.1534921,21.4194921 41.7972698,20.1764444 C42.4109524,21.1850794 43.2862857,21.5763175 44.2660317,21.7855556 C46.4553968,22.2519048 48.2646667,21.3006349 49.9852063,19.6605714 C50.2555238,20.5722222 50.9026349,21.3270476 51.6913016,21.552381 C52.4093968,21.7570794 53.477873,21.795873 54.634254,20.7967302 L54.1761587,22.3736508 C52.6450476,22.7991429 52.0982222,22.9336825 50.7569524,23.3224444 C50.0846667,23.5176508 47.5069524,24.2749524 47.5903175,27.5967619 C47.6452063,29.768381 48.9769841,31.2879365 50.6430476,31.5046032 C52.567873,31.7551111 54.5690476,30.6705397 55.2231746,28.1241905 C55.7109841,26.224127 56.2623492,24.0979048 56.2623492,24.0979048 C56.2623492,24.0979048 62.0446667,22.2729524 66.2694603,20.2020317 C68.0226032,21.7182857 69.649873,22.1656508 70.889619,22.2432381 C72.0860317,22.3171111 73.5606032,22.0637143 74.7991111,20.9457143 C76.0120317,22.0018095 77.7853968,22.3810794 78.7651429,22.4372063 C81.076254,22.5705079 82.8104127,21.9440317 84.3072698,20.4075556 C85.2738095,19.4158413 86.0657778,17.6862222 85.8078413,15.5748571 L85.8078413,15.5748571 Z" mask="url(#mask-2)"/><path id="Fill-5" fill="#F66" d="M18.5706032,14.6421587 C17.6284127,18.3164127 15.6606667,20.0419048 13.5043175,20.4789524 C12.0272698,20.7789841 11.0041905,20.5647937 9.83088889,20.2296825 C12.9888571,15.8526032 13.4758413,10.2976825 16.7473016,6.382 C18.9940317,8.24244444 19.2503175,11.993873 18.5706032,14.6421587 Z M4.35974603,22.0368889 C3.44314286,22.0893016 3.02549206,21.7021905 3.00031746,21.249873 C2.97514286,20.7979683 3.3284127,20.3188254 4.27101587,20.3320317 C5.0175873,20.3415238 5.82565079,20.6910794 6.63949206,21.0975873 C5.80006349,21.8057778 5.08279365,21.994381 4.35974603,22.0368889 Z M18.2701587,4.82406349 C18.9469841,4.16044444 19.9886349,3.6004127 19.9886349,3.6004127 L18.1612063,1.10853968 C17.0890159,1.68673016 16.0428254,2.46136508 15.1513968,3.43657143 C10.7693651,2.35571429 6.62092063,3.03171429 3.51288889,5.22520635 C0.113492063,7.62463492 -0.512984127,10.8044762 0.346253968,12.9765079 C1.04412698,14.740381 2.70647619,15.976 4.62469841,16.0874286 C6.82479365,16.2145397 8.73187302,14.9479683 9.52549206,12.994254 L7.84663492,11.2964127 C7.75625397,12.1940317 6.93787302,13.514254 5.24993651,13.514254 C3.78403175,13.514254 2.77993651,12.2930794 2.77993651,10.9930794 C2.77993651,9.64644444 3.328,8.04269841 5.46412698,6.54955556 C8.8668254,4.1707619 12.4643175,4.54012698 13.9553968,5.10222222 C11.7994603,8.53752381 10.4346667,15.702381 7.93412698,19.6114603 C6.17355556,18.9882857 4.28215873,18.3453016 2.13571429,19.2086667 C1.07673016,19.6345714 0.501015873,20.7228571 0.772984127,21.8132063 C0.990063492,22.6856508 2.14314286,23.6253651 3.78279365,23.6253651 C5.21857143,23.6253651 6.99977778,23.1482857 8.47146032,21.8053651 C10.1325714,22.4285397 11.7569524,22.9683492 13.870381,22.8556825 C18.3502222,22.6154921 21.3266032,19.3444444 22.1565397,15.7164127 C22.7953968,12.9249206 22.6930476,10.0413968 20.7455238,7.22060317 C20.0868571,6.26685714 19.2552698,5.46415873 18.2701587,4.82406349 L18.2701587,4.82406349 Z" mask="url(#mask-2)"/></g></svg>