<svg width="432" height="524" xmlns="http://www.w3.org/2000/svg"><g fill="none" fill-rule="evenodd"><path fill="#FFF" opacity=".694" d="M69 74h286v294H69z"/><path d="M401.69 425.865H157.353L81.12 508.33v-82.932H32.658c-7.383 0-14.075-2.479-18.866-6.719C9.008 414.444 6 408.458 6 401.113V32.628c0-7.31 3.046-14.018 8.023-18.878C18.905 8.984 25.642 6 33.135 6l368.085.469c7.563 0 13.621 2.985 17.895 7.679C423.487 18.949 426 25.672 426 33.096v368.017c0 7.685-2.494 13.72-6.6 17.926-4.185 4.285-10.182 6.826-17.71 6.826z" stroke="#FFF" stroke-width="12" fill="#FFF" opacity=".029"/><g fill="#09B3AF" fill-rule="nonzero"><path d="M254.284 242H157v47h94.946c5.612 0 10.757-2.35 14.967-6.11 3.741-3.76 6.08-9.4 6.08-16.45a28.297 28.297 0 00-5.145-16.92c-3.742-4.7-7.951-7.52-13.564-7.52zm2.672-59.744c4.184-3.134 6.044-9.923 6.044-18.8 0-7.834-1.86-13.578-5.114-17.234-3.254-3.133-7.439-5.222-12.088-5.222H157v47h86.939c4.649 0 9.298-2.611 13.017-5.744z"/><path d="M401.175 12H32.613c-11.737 0-21.128 9.376-21.128 20.628v368.485c0 11.252 9.39 18.284 20.659 18.284h54.462V493l67.609-73.135h246.96c11.268 0 18.31-7.032 18.31-18.752V33.096c0-11.251-7.042-20.627-18.78-20.627l.47-.469zM339.2 310.633c-4.695 8.438-11.738 15.47-20.189 20.627-8.92 5.626-18.78 10.783-30.048 13.127-11.268 2.813-23.475 5.157-36.152 5.157H86.606V87.01h188.741c9.39 0 17.372 1.875 24.884 6.094 7.043 3.75 13.616 8.908 18.78 15.002a70.257 70.257 0 0115.964 45.475c0 12.189-3.287 23.91-9.39 35.16a58.658 58.658 0 01-28.17 25.317c15.023 4.219 26.76 11.72 35.681 22.502 8.452 11.252 12.677 25.785 12.677 44.069 0 11.72-2.347 21.565-7.042 30.004h.47z"/></g></g></svg>